<svg xmlns="http://www.w3.org/2000/svg" viewBox="0 0 16 16" xml:space="preserve" enable-background="new 0 0 32 32" id="Microservices-2--Streamline-Carbon" height="16" width="16">
  <desc>
    Microservices 2 Streamline Icon: https://streamlinehq.com
  </desc>
  <switch>
    <g>
      <path d="M8 11v-3h-3v-3H1v10h10v-4h-3zm-1 -2v2h-2v-2h2zM2 6h2v2H2v-2zm2 3v2H2v-2h2zM2 14v-2h2v2H2zm5 0h-2v-2h2v2zm3 0h-2v-2h2v2zm4.8 -7.2L13.5 8.1V5h1.5V1h-4v4h1.5v3.1l-1.3 -1.3L10.5 7.5l2.5 2.5 2.5 -2.5 -0.7 -0.7zM12 2h2v2h-2V2z" fill="#000000" stroke-width="0.5"></path>
      <path d="M0 0h16v16H0z" fill="none" stroke-width="0.5"></path>
    </g>
  </switch>
</svg>